<svg width="60" height="60" viewBox="0 0 60 60" fill="none" xmlns="http://www.w3.org/2000/svg">
<rect width="60" height="60" rx="16" fill="#FFE8D9"/>
<path d="M37.4004 10.8999H22.4004C20.4122 10.8999 18.8004 12.5117 18.8004 14.4999V25.8999C18.8004 27.8881 20.4122 29.4999 22.4004 29.4999H37.4004C39.3886 29.4999 41.0004 27.8881 41.0004 25.8999V14.4999C41.0004 12.5117 39.3886 10.8999 37.4004 10.8999Z" stroke="#D23F06" stroke-width="2.4" stroke-linecap="round" stroke-linejoin="round"/>
<path d="M18.8006 15.4L28.8986 20.0392C29.2129 20.1836 29.5547 20.2584 29.9006 20.2584C30.2465 20.2584 30.5883 20.1836 30.9026 20.0392L41.0006 15.4" stroke="#D23F06" stroke-width="2.4" stroke-linecap="round" stroke-linejoin="round"/>
<path d="M23.74 42.01H27.71V42.72H23.74V42.01ZM23.64 45.42H26.99V46.13H23.64V45.42ZM25 42.41H25.72V44.84C25.72 45.3267 25.7 45.8267 25.66 46.34C25.62 46.8533 25.5367 47.3633 25.41 47.87C25.2833 48.3767 25.09 48.8733 24.83 49.36C24.5767 49.84 24.2333 50.2933 23.8 50.72C23.7667 50.6667 23.7167 50.6067 23.65 50.54C23.5833 50.4733 23.5133 50.41 23.44 50.35C23.3733 50.29 23.31 50.2433 23.25 50.21C23.65 49.81 23.9667 49.39 24.2 48.95C24.4333 48.5033 24.6067 48.05 24.72 47.59C24.84 47.1233 24.9167 46.6567 24.95 46.19C24.9833 45.7233 25 45.27 25 44.83V42.41ZM27.33 42.01H28.09C28.0833 42.7167 28.0767 43.4 28.07 44.06C28.07 44.7133 28.07 45.33 28.07 45.91C28.0767 46.4833 28.0933 47.0067 28.12 47.48C28.1467 47.9533 28.1833 48.3633 28.23 48.71C28.2767 49.0567 28.34 49.33 28.42 49.53C28.5 49.73 28.5967 49.8467 28.71 49.88C28.7367 49.8867 28.7633 49.8167 28.79 49.67C28.8167 49.5233 28.84 49.33 28.86 49.09C28.88 48.85 28.8967 48.59 28.91 48.31C28.9567 48.37 29.0067 48.4367 29.06 48.51C29.12 48.5767 29.1767 48.6433 29.23 48.71C29.29 48.77 29.3367 48.8167 29.37 48.85C29.3367 49.4033 29.2767 49.82 29.19 50.1C29.1033 50.38 28.9933 50.5567 28.86 50.63C28.7333 50.71 28.5833 50.7167 28.41 50.65C28.1767 50.5767 27.9867 50.3767 27.84 50.05C27.7 49.73 27.5933 49.3067 27.52 48.78C27.4467 48.2533 27.3967 47.64 27.37 46.94C27.35 46.24 27.3367 45.4767 27.33 44.65C27.33 43.8167 27.33 42.9367 27.33 42.01ZM20.35 44.53H23.28V45.12H20.35V44.53ZM20.39 41.85H23.24V42.45H20.39V41.85ZM20.35 45.86H23.28V46.46H20.35V45.86ZM19.88 43.16H23.61V43.79H19.88V43.16ZM20.69 47.21H23.29V50.13H20.69V49.51H22.63V47.84H20.69V47.21ZM20.34 47.21H21V50.59H20.34V47.21ZM32.64 48.01H33.38V49.66C33.38 49.7867 33.4167 49.8667 33.49 49.9C33.5633 49.94 33.7367 49.96 34.01 49.96C34.0767 49.96 34.19 49.96 34.35 49.96C34.5167 49.96 34.7 49.96 34.9 49.96C35.1 49.96 35.2867 49.96 35.46 49.96C35.6333 49.96 35.7633 49.96 35.85 49.96C35.9967 49.96 36.1033 49.94 36.17 49.9C36.2433 49.8533 36.2933 49.76 36.32 49.62C36.3533 49.48 36.3767 49.2733 36.39 49C36.45 49.0333 36.5167 49.07 36.59 49.11C36.67 49.1433 36.7533 49.1733 36.84 49.2C36.9267 49.2267 37.0033 49.25 37.07 49.27C37.0367 49.6433 36.9833 49.9267 36.91 50.12C36.8367 50.32 36.72 50.4567 36.56 50.53C36.4067 50.6033 36.1933 50.64 35.92 50.64C35.8667 50.64 35.7733 50.64 35.64 50.64C35.5133 50.64 35.3633 50.64 35.19 50.64C35.0167 50.64 34.8433 50.64 34.67 50.64C34.5033 50.64 34.3533 50.64 34.22 50.64C34.0933 50.64 34.0067 50.64 33.96 50.64C33.6133 50.64 33.3433 50.6133 33.15 50.56C32.9633 50.5067 32.83 50.4067 32.75 50.26C32.6767 50.12 32.64 49.92 32.64 49.66V48.01ZM33.67 47.65L34.22 47.27C34.42 47.3967 34.62 47.5433 34.82 47.71C35.02 47.87 35.2033 48.0333 35.37 48.2C35.5367 48.3667 35.67 48.5267 35.77 48.68L35.19 49.11C35.09 48.9567 34.96 48.7967 34.8 48.63C34.64 48.4567 34.46 48.2833 34.26 48.11C34.0667 47.9367 33.87 47.7833 33.67 47.65ZM36.9 48.2L37.5 47.82C37.7467 48.02 37.99 48.2467 38.23 48.5C38.47 48.7467 38.6867 48.9967 38.88 49.25C39.08 49.4967 39.2333 49.73 39.34 49.95L38.69 50.37C38.59 50.1567 38.4433 49.9233 38.25 49.67C38.0633 49.4167 37.8533 49.16 37.62 48.9C37.3867 48.64 37.1467 48.4067 36.9 48.2ZM31.28 47.93L31.94 48.17C31.8133 48.5567 31.6467 48.95 31.44 49.35C31.2333 49.75 30.9667 50.09 30.64 50.37L30.02 49.93C30.3333 49.6967 30.5933 49.3967 30.8 49.03C31.0067 48.6567 31.1667 48.29 31.28 47.93ZM32.37 44.31V45.13H37.04V44.31H32.37ZM32.37 45.72V46.54H37.04V45.72H32.37ZM32.37 42.92V43.73H37.04V42.92H32.37ZM31.64 42.32H37.8V47.15H31.64V42.32ZM34.3 41.4L35.18 41.55C35.08 41.7567 34.9733 41.96 34.86 42.16C34.7533 42.3533 34.6567 42.5233 34.57 42.67L33.9 42.5C33.9733 42.34 34.0467 42.1567 34.12 41.95C34.2 41.7367 34.26 41.5533 34.3 41.4Z" fill="#D23F06"/>
</svg>
