<svg width="24" height="24" viewBox="0 0 24 24" fill="none" xmlns="http://www.w3.org/2000/svg">
<path d="M9.98697 15.707C8.3883 15.707 7.03545 15.1532 5.92841 14.0456C4.82137 12.9379 4.26755 11.5851 4.26697 9.987C4.26638 8.38892 4.82019 7.03606 5.92841 5.92844C7.03662 4.82081 8.38947 4.267 9.98697 4.267C11.5845 4.267 12.9376 4.82081 14.0464 5.92844C15.1552 7.03606 15.7087 8.38892 15.707 9.987C15.707 10.6323 15.6043 11.241 15.399 11.813C15.1936 12.385 14.915 12.891 14.563 13.331L19.491 18.259C19.6523 18.4203 19.733 18.6257 19.733 18.875C19.733 19.1243 19.6523 19.3297 19.491 19.491C19.3296 19.6523 19.1243 19.733 18.875 19.733C18.6256 19.733 18.4203 19.6523 18.259 19.491L13.331 14.563C12.891 14.915 12.385 15.1937 11.813 15.399C11.241 15.6043 10.6323 15.707 9.98697 15.707ZM9.98697 13.947C11.087 13.947 12.0221 13.5621 12.7924 12.7924C13.5627 12.0227 13.9476 11.0876 13.947 9.987C13.9464 8.88641 13.5615 7.95156 12.7924 7.18244C12.0233 6.41332 11.0881 6.02817 9.98697 6.027C8.88579 6.02582 7.95094 6.41097 7.18241 7.18244C6.41388 7.95391 6.02873 8.88876 6.02697 9.987C6.02521 11.0852 6.41036 12.0204 7.18241 12.7924C7.95446 13.5645 8.88931 13.9493 9.98697 13.947Z" fill="#333333"/>
</svg>
